<svg width="39" height="39" viewBox="0 0 39 39" fill="none" xmlns="http://www.w3.org/2000/svg">
<path d="M14.583 15.4939C14.583 13.0476 16.5577 11.0729 19.0041 11.0729C21.4504 11.0729 23.4251 13.0476 23.4251 15.4939C23.4251 17.9402 21.4504 19.915 19.0041 19.915" stroke="#E6E0D2" stroke-width="2" stroke-miterlimit="10" stroke-linecap="round"/>
<path d="M26.2197 6.88909C22.065 4.4932 16.7684 4.29639 12.2633 6.83349C5.48632 10.65 3.0735 19.1969 6.86996 25.9382C10.6664 32.6796 19.2259 35.0473 26.0029 31.2307C31.644 28.0539 34.2554 21.6108 32.7941 15.6346C32.7941 15.6346 32.635 14.9294 32.3736 14.1633" stroke="#E6E0D2" stroke-width="2" stroke-miterlimit="10" stroke-linecap="round"/>
<path d="M19.0044 22.8624V19.915" stroke="#E6E0D2" stroke-width="2" stroke-miterlimit="10" stroke-linecap="round"/>
<circle cx="20" cy="28.0724" r="1" fill="#D9D9D9"/>
</svg>
