<svg width="30" height="30" viewBox="0 0 30 30" fill="none" xmlns="http://www.w3.org/2000/svg">
<path d="M16.9193 10.4648C15.9983 10.0935 14.985 9.99669 14.0076 10.1866C13.0301 10.3766 12.1325 10.8447 11.4282 11.5318C10.7239 12.2189 10.2447 13.0941 10.0511 14.0467C9.8575 14.9992 9.95826 15.9863 10.3406 16.883C10.723 17.7798 11.3698 18.5458 12.1992 19.0843C13.0286 19.6228 14.0033 19.9095 15 19.9082C15.6612 19.9082 16.316 19.7812 16.9268 19.5344C17.5377 19.2877 18.0926 18.9261 18.5598 18.4702C19.0271 18.0143 19.3975 17.4732 19.6499 16.8778C19.9023 16.2823 20.0317 15.6442 20.0308 15M25.7843 15V15C25.7764 15.8485 26.1006 16.6863 26.7729 17.2039L28.6962 18.6846C28.8334 18.7867 28.9271 18.9345 28.9595 19.0997C28.9919 19.2649 28.9606 19.4359 28.8716 19.5801L25.9948 24.4404C25.9115 24.5862 25.7763 24.6973 25.6148 24.7527C25.4532 24.8081 25.2765 24.804 25.1178 24.7412L22.8133 23.8361C22.0169 23.5233 21.1271 23.6624 20.3824 24.0836V24.0836C19.6182 24.5159 19.0269 25.2342 18.9004 26.1031L18.5644 28.4121C18.5405 28.5763 18.4562 28.7265 18.3271 28.8347C18.198 28.9429 18.033 29.0016 17.8627 29H12.1092C11.9389 29.0016 11.7739 28.9429 11.6448 28.8347C11.5157 28.7265 11.4314 28.5763 11.4076 28.4121L11.0715 26.103C10.945 25.2339 10.3549 24.5144 9.59041 24.082V24.082C8.84553 23.6607 7.95541 23.5231 7.15886 23.836L4.85415 24.7412C4.69547 24.804 4.5187 24.8081 4.35714 24.7527C4.19559 24.6973 4.06042 24.5862 3.97709 24.4404L1.10033 19.5801C1.01137 19.4359 0.980077 19.2649 1.01244 19.0997C1.0448 18.9345 1.13855 18.7867 1.27574 18.6846L3.21724 17.2002C3.89099 16.6851 4.21662 15.8481 4.20864 15V15V15C4.21706 14.1519 3.89105 13.3149 3.21725 12.7998L1.27574 11.3154C1.13855 11.2133 1.0448 11.0655 1.01244 10.9003C0.980077 10.7351 1.01137 10.5641 1.10033 10.4199L3.97709 5.55959C4.06042 5.41381 4.19559 5.30275 4.35714 5.24734C4.5187 5.19194 4.69547 5.19602 4.85415 5.25881L7.17304 6.16602C7.96934 6.47755 8.85839 6.33799 9.6026 5.91691V5.91691C10.3674 5.48419 10.9591 4.76534 11.0857 3.8958L11.4216 1.58792C11.4454 1.42367 11.5297 1.27347 11.6588 1.1653C11.7879 1.05714 11.953 0.998401 12.1232 1.00003H17.8908C18.0611 0.998401 18.2261 1.05714 18.3552 1.1653C18.4843 1.27347 18.5686 1.42367 18.5924 1.58792L18.9285 3.89698C19.055 4.76614 19.6451 5.48556 20.4096 5.91799V5.91799C21.1545 6.33933 22.0446 6.47685 22.8411 6.164L25.1458 5.25881C25.3045 5.19602 25.4813 5.19194 25.6429 5.24734C25.8044 5.30275 25.9396 5.41381 26.0229 5.55959L28.8997 10.4199C28.9886 10.5641 29.0199 10.7351 28.9876 10.9003C28.9552 11.0655 28.8615 11.2133 28.7243 11.3154L26.7767 12.801C26.1025 13.3152 25.7764 14.1521 25.7843 15V15Z" stroke="#E6E0D2" stroke-width="2" stroke-linecap="round" stroke-linejoin="round"/>
</svg>
